<svg width="727" height="700" viewBox="0 0 727 700" fill="none" xmlns="http://www.w3.org/2000/svg">
<path d="M1007.09 75.3746L1007.11 75.4038L1007.13 75.4324C1016.17 88.0998 1020.3 103.621 1018.77 119.11C1017.23 134.6 1010.13 149.005 998.783 159.647L998.754 159.675L998.725 159.704L596.473 562.316C584.436 574.357 568.116 581.12 551.099 581.12C534.082 581.12 517.762 574.357 505.725 562.316L370.159 426.628C370.159 426.628 370.159 426.628 370.158 426.628C358.132 414.583 351.378 398.249 351.383 381.22C351.388 364.19 358.152 347.86 370.186 335.823C382.22 323.785 398.538 317.026 415.551 317.031C432.563 317.036 448.877 323.805 460.904 335.85L460.905 335.851L549.331 424.299L551.1 426.068L552.868 424.299L868.272 108.613L869.922 106.961L868.387 105.202C803.574 30.9147 714.761 -18.2412 617.44 -33.6903C520.119 -49.1394 420.467 -29.9009 335.869 20.6688C251.271 71.2386 187.096 149.93 154.538 243.015C121.98 336.1 123.106 437.67 157.719 530.01C192.332 622.349 258.235 699.596 343.933 748.275C429.631 796.954 529.684 813.975 626.639 796.369C723.594 778.763 811.296 727.648 874.446 651.94C937.597 576.232 972.188 480.737 972.185 382.113V382.079C972.185 374.78 972.185 366.875 971.449 357.999C970.767 341.158 976.724 324.722 988.038 312.236C999.363 299.737 1015.15 292.2 1031.98 291.253C1048.81 290.305 1065.33 296.022 1077.99 307.17C1090.64 318.314 1098.4 333.989 1099.6 350.813C1100.22 362.036 1100.5 372.3 1100.5 382.11C1100.35 527.773 1042.47 667.426 939.567 770.424C836.661 873.422 697.134 931.351 551.603 931.5C456.82 931.517 363.648 906.972 281.153 860.255C198.659 813.538 129.653 746.239 80.8537 664.909C32.0541 583.58 5.12312 490.99 2.68212 396.151C0.241127 301.313 22.3733 207.458 66.9243 123.721C111.475 39.9845 176.927 -30.7811 256.909 -81.6879C336.891 -132.595 428.679 -161.908 523.338 -166.776C617.996 -171.644 712.302 -151.9 797.075 -109.465C881.849 -67.0305 954.202 -3.35133 1007.09 75.3746Z" stroke="white" stroke-width="5"/>
</svg>
