<svg width="1072" height="400" viewBox="0 0 1072 400" fill="none" xmlns="http://www.w3.org/2000/svg">
<path opacity="0.1" d="M1007.09 -47.6254L1007.11 -47.5962L1007.13 -47.5676C1016.17 -34.9002 1020.3 -19.3795 1018.77 -3.88974C1017.23 11.6 1010.13 26.0045 998.783 36.6471L998.754 36.6749L998.725 36.7037L596.473 439.316C584.436 451.357 568.116 458.12 551.099 458.12C534.082 458.12 517.762 451.357 505.725 439.316L370.159 303.628C370.159 303.628 370.159 303.628 370.158 303.628C358.132 291.583 351.378 275.249 351.383 258.22C351.388 241.19 358.152 224.86 370.186 212.823C382.22 200.785 398.538 194.026 415.551 194.031C432.563 194.036 448.877 200.805 460.904 212.85L460.905 212.851L549.331 301.299L551.1 303.068L552.868 301.299L868.272 -14.3874L869.922 -16.0388L868.387 -17.7979C803.574 -92.0853 714.761 -141.241 617.44 -156.69C520.119 -172.139 420.467 -152.901 335.869 -102.331C251.271 -51.7614 187.096 26.9295 154.538 120.015C121.98 213.1 123.106 314.67 157.719 407.01C192.332 499.349 258.235 576.596 343.933 625.275C429.631 673.954 529.684 690.975 626.639 673.369C723.594 655.763 811.296 604.648 874.446 528.94C937.597 453.232 972.188 357.737 972.185 259.113V259.079C972.185 251.78 972.185 243.875 971.449 234.999C970.767 218.158 976.724 201.722 988.038 189.236C999.363 176.737 1015.15 169.2 1031.98 168.253C1048.81 167.305 1065.33 173.022 1077.99 184.17C1090.64 195.314 1098.4 210.989 1099.6 227.813C1100.22 239.036 1100.5 249.3 1100.5 259.11C1100.35 404.773 1042.47 544.426 939.567 647.424C836.661 750.422 697.134 808.351 551.603 808.5C456.82 808.517 363.648 783.972 281.153 737.255C198.659 690.538 129.653 623.239 80.8537 541.909C32.0541 460.58 5.12312 367.99 2.68212 273.151C0.241127 178.313 22.3733 84.4581 66.9243 0.721313C111.475 -83.0155 176.927 -153.781 256.909 -204.688C336.891 -255.595 428.679 -284.908 523.338 -289.776C617.996 -294.644 712.302 -274.9 797.075 -232.465C881.849 -190.031 954.202 -126.351 1007.09 -47.6254Z" stroke="white" stroke-width="5"/>
</svg>
