<svg width="26" height="25" viewBox="0 0 26 25" fill="none" xmlns="http://www.w3.org/2000/svg">
<path d="M22.4667 24.9998H2.53963C2.48777 24.9826 2.4364 24.9611 2.38356 24.9508C1.52202 24.7654 0.840509 24.3109 0.40998 23.5413C0.22407 23.2091 0.133562 22.8236 0 22.4621V2.54036C0.0191637 2.48878 0.0354959 2.43619 0.0489237 2.38283C0.331213 1.00122 1.51125 0.00464775 2.90558 0.00366928C9.30251 -0.00122309 15.6991 -0.00122309 22.0954 0.00366928C22.8661 0.00522022 23.6048 0.312031 24.1498 0.85695C24.6948 1.40187 25.0017 2.14051 25.0034 2.9112C25.0093 9.30651 25.0093 15.7018 25.0034 22.0971C25.0034 23.0594 24.5807 23.8324 23.8195 24.4239C23.4163 24.7361 22.9452 24.8711 22.4667 24.9998ZM12.5039 23.0487H21.9281C22.6717 23.0487 23.0533 22.6676 23.0533 21.9234C23.0533 15.6423 23.0533 9.36114 23.0533 3.07999C23.0533 2.33488 22.6732 1.95475 21.9281 1.95475H3.07779C2.33219 1.95475 1.95254 2.3339 1.95254 3.07999V21.9244C1.95254 22.6695 2.33268 23.0497 3.07779 23.0497L12.5039 23.0487Z" fill="#0BE048"/>
<path d="M9.98047 9.63248H13.2779V11.0273C13.3097 11.0239 13.3313 11.0273 13.3361 11.0204C14.0088 9.98913 15.0059 9.52778 16.1938 9.44216C17.0201 9.38101 17.8371 9.46516 18.6052 9.81105C19.6003 10.2592 20.139 11.0806 20.3567 12.1056C20.5013 12.7649 20.5819 13.4366 20.5974 14.1114C20.6282 16.2426 20.6111 18.3747 20.6121 20.5067C20.6121 20.5464 20.6082 20.5865 20.6052 20.6432H17.2407V20.381C17.2407 18.5586 17.2437 16.7357 17.2339 14.9133C17.2305 14.5637 17.1991 14.2149 17.14 13.8702C16.9506 12.7416 16.1913 12.2044 15.0583 12.3766C14.1209 12.519 13.5715 13.0581 13.3904 14.0601C13.3235 14.4444 13.2896 14.8338 13.2892 15.224C13.2784 16.9407 13.2848 18.6579 13.2848 20.3747V20.6457H9.98047V9.63248Z" fill="#0BE048"/>
<path d="M7.79788 20.6455H4.40796V9.6377H7.79788V20.6455Z" fill="#0BE048"/>
<path d="M6.15063 8.10596C5.75482 8.10509 5.36815 7.98688 5.03952 7.76627C4.71089 7.54567 4.45504 7.23258 4.30433 6.86658C4.15362 6.50058 4.11481 6.09812 4.19281 5.71007C4.27082 5.32202 4.46212 4.96581 4.74255 4.68648C5.02298 4.40715 5.37993 4.21723 5.76828 4.14075C6.15663 4.06427 6.55894 4.10465 6.92435 4.25679C7.28975 4.40893 7.60184 4.66599 7.82116 4.99549C8.04048 5.32498 8.15717 5.71211 8.1565 6.10792C8.15443 6.63855 7.94218 7.14674 7.56623 7.52122C7.19028 7.89571 6.68126 8.10596 6.15063 8.10596Z" fill="#0BE048"/>
</svg>
