<svg width="191" height="65" viewBox="0 0 191 65" fill="none" xmlns="http://www.w3.org/2000/svg">
<path d="M11.9601 10.9132L18.888 17.8215C20.0368 18.9706 20.6821 20.529 20.6821 22.1539C20.6821 23.7787 20.0368 25.3371 18.888 26.4862L11.9601 33.4102C11.2646 34.1119 10.4094 34.6345 9.46772 34.9333C8.52604 35.232 7.52597 35.2981 6.55316 35.1259C5.58036 34.9536 4.66381 34.548 3.88202 33.944C3.10023 33.34 2.4765 32.5555 2.06426 31.6577C0.724702 28.6676 0.0322266 25.4283 0.0322266 22.1519C0.0322266 18.8755 0.724702 15.6361 2.06426 12.6461C2.47845 11.7498 3.10364 10.9671 3.88634 10.3651C4.66903 9.76304 5.58593 9.35961 6.55857 9.18928C7.53121 9.01895 8.53063 9.0868 9.47133 9.38702C10.412 9.68724 11.266 10.2109 11.9601 10.9132Z" fill="#333232"/>
<path d="M35.8255 25.6474L24.3888 14.2106C23.7203 13.5404 23.2158 12.7247 22.9146 11.8273C22.6134 10.9299 22.5236 9.97502 22.6522 9.03719C22.7809 8.09936 23.1245 7.20394 23.6563 6.42082C24.1881 5.63769 24.8937 4.98804 25.7179 4.52257C30.1232 2.03044 35.0985 0.720703 40.1599 0.720703C45.2212 0.720703 50.1965 2.03044 54.6018 4.52257C55.4261 4.98804 56.1316 5.63769 56.6634 6.42082C57.1952 7.20394 57.5388 8.09936 57.6675 9.03719C57.7961 9.97502 57.7064 10.9299 57.4051 11.8273C57.1039 12.7247 56.5994 13.5404 55.9309 14.2106L44.4903 25.6474C43.9218 26.2171 43.2465 26.6691 42.5031 26.9775C41.7597 27.2859 40.9627 27.4447 40.1579 27.4447C39.3531 27.4447 38.5561 27.2859 37.8127 26.9775C37.0693 26.6691 36.394 26.2171 35.8255 25.6474Z" fill="#333232"/>
<path d="M45.7761 53.9002L38.8483 46.9841C37.6995 45.8349 37.0542 44.2766 37.0542 42.6517C37.0542 41.0269 37.6995 39.4685 38.8483 38.3193L45.7761 31.3954C46.4707 30.6908 47.326 30.1654 48.2684 29.8643C49.2108 29.5631 50.2122 29.4952 51.1867 29.6664C52.1611 29.8376 53.0794 30.2428 53.8627 30.8472C54.6461 31.4516 55.271 32.237 55.6838 33.1362C57.0233 36.1262 57.7158 39.3656 57.7158 42.6419C57.7158 45.9183 57.0233 49.1577 55.6838 52.1477C55.2721 53.0477 54.6481 53.8343 53.8653 54.4398C53.0826 55.0454 52.1645 55.4518 51.1899 55.6242C50.2154 55.7966 49.2136 55.7298 48.2706 55.4295C47.3275 55.1292 46.4716 54.6044 45.7761 53.9002Z" fill="#333232"/>
<path d="M21.9107 39.1425L33.3357 50.5832C34.0041 51.2534 34.5087 52.0691 34.8099 52.9665C35.1111 53.8639 35.2009 54.8188 35.0723 55.7566C34.9436 56.6944 34.6 57.5898 34.0682 58.373C33.5364 59.1561 32.8308 59.8057 32.0066 60.2712C27.6013 62.7633 22.626 64.0731 17.5646 64.0731C12.5033 64.0731 7.52802 62.7633 3.12271 60.2712C2.29844 59.8057 1.59288 59.1561 1.0611 58.373C0.52931 57.5898 0.185677 56.6944 0.0570145 55.7566C-0.0716479 54.8188 0.0181408 53.8639 0.319374 52.9665C0.620606 52.0691 1.12513 51.2534 1.79359 50.5832L13.246 39.1425C13.8145 38.5728 14.4897 38.1208 15.2332 37.8124C15.9766 37.504 16.7735 37.3452 17.5784 37.3452C18.3832 37.3452 19.1802 37.504 19.9236 37.8124C20.667 38.1208 21.3423 38.5728 21.9107 39.1425Z" fill="#333232"/>
<path d="M69.3633 14.854C69.3633 14.646 69.4459 14.4466 69.593 14.2995C69.74 14.1524 69.9395 14.0698 70.1475 14.0698H79.2749C80.4371 14.0705 81.5979 14.1531 82.7486 14.3168C83.8423 14.458 84.9034 14.787 85.8852 15.2892C86.7961 15.7704 87.5704 16.4745 88.1357 17.3358C88.7555 18.3907 89.0552 19.603 88.9982 20.8252C89.0461 22.181 88.5987 23.5078 87.7397 24.5577C86.8612 25.5711 85.7077 26.3079 84.4188 26.6788V26.7533C85.2479 26.8646 86.0532 27.111 86.8026 27.4826C87.4875 27.8354 88.1025 28.3097 88.6179 28.8823C89.1344 29.4525 89.5341 30.1185 89.7941 30.8426C90.0797 31.617 90.2244 32.4363 90.2215 33.2617C90.2668 34.4922 89.955 35.7096 89.3236 36.7668C88.7358 37.6941 87.9397 38.4714 86.9987 39.0369C86.0073 39.6281 84.9229 40.0471 83.7915 40.2758C82.6256 40.5295 81.4364 40.6609 80.2433 40.6679H70.1396C69.9316 40.6679 69.7322 40.5853 69.5851 40.4382C69.4381 40.2912 69.3555 40.0917 69.3555 39.8838L69.3633 14.854ZM75.2169 23.9226C75.2169 24.1305 75.2995 24.33 75.4466 24.477C75.5937 24.6241 75.7931 24.7067 76.0011 24.7067H79.4709C79.9183 24.7067 80.3643 24.6554 80.8 24.5538C81.217 24.4603 81.6149 24.2958 81.9762 24.0676C82.325 23.8384 82.6139 23.5292 82.8192 23.1659C83.041 22.7503 83.1505 22.2841 83.1368 21.8132C83.1555 21.3331 83.0313 20.8583 82.78 20.4488C82.5508 20.0934 82.2351 19.802 81.8625 19.6019C81.461 19.3971 81.0317 19.2518 80.5883 19.1707C80.1292 19.0859 79.6633 19.0426 79.1965 19.0413H75.9932C75.7853 19.0413 75.5858 19.1239 75.4388 19.271C75.2917 19.418 75.2091 19.6175 75.2091 19.8254L75.2169 23.9226ZM75.2169 34.9006C75.2169 35.1085 75.2995 35.308 75.4466 35.455C75.5937 35.6021 75.7931 35.6847 76.0011 35.6847H80.4824C80.9424 35.6843 81.401 35.6357 81.8508 35.5396C82.3 35.4466 82.7273 35.2682 83.1093 35.0143C83.4787 34.762 83.788 34.4313 84.015 34.0458C84.2627 33.5978 84.3846 33.0912 84.3679 32.5795C84.3971 32.035 84.2364 31.4973 83.9131 31.0583C83.6023 30.6691 83.1975 30.3655 82.7369 30.1761C82.2351 29.968 81.7076 29.8282 81.1686 29.7605C80.6607 29.6884 80.1485 29.6505 79.6356 29.6468H75.9775C75.7696 29.6468 75.5701 29.7294 75.4231 29.8765C75.276 30.0235 75.1934 30.223 75.1934 30.4309L75.2169 34.9006Z" fill="#333232"/>
<path d="M109.9 36.9902C109.99 37.0562 110.065 37.1408 110.12 37.2383C110.174 37.3357 110.208 37.4438 110.217 37.5552C110.227 37.6665 110.213 37.7787 110.176 37.8841C110.138 37.9896 110.079 38.0858 110.001 38.1664C109.193 39.0091 108.229 39.6869 107.163 40.162C105.823 40.7814 104.365 41.1024 102.889 41.103C101.541 41.1154 100.201 40.887 98.9333 40.4286C97.7403 40.0062 96.6434 39.3504 95.7065 38.4997C94.7848 37.655 94.0502 36.6266 93.5501 35.4807C93.0272 34.2329 92.7578 32.8934 92.7578 31.5404C92.7578 30.1874 93.0272 28.8479 93.5501 27.6001C94.0502 26.4542 94.7848 25.4258 95.7065 24.5811C96.6424 23.729 97.7396 23.0731 98.9333 22.6521C100.201 22.1925 101.541 21.9628 102.889 21.9739C104.099 21.9585 105.3 22.1892 106.418 22.6521C107.453 23.0803 108.376 23.7403 109.115 24.5811C109.88 25.4642 110.461 26.4904 110.825 27.6001C111.237 28.8655 111.44 30.1899 111.425 31.5208V32.5088C111.425 32.7168 111.342 32.9162 111.195 33.0633C111.048 33.2103 110.848 33.293 110.641 33.293H99.4469C99.3178 33.2951 99.1912 33.3291 99.0784 33.3919C98.9656 33.4547 98.87 33.5443 98.8002 33.653C98.7304 33.7616 98.6884 33.8857 98.6782 34.0145C98.6679 34.1432 98.6895 34.2724 98.7412 34.3908C98.9989 34.9562 99.3776 35.4581 99.8507 35.861C100.626 36.5087 101.613 36.8491 102.623 36.8177C103.451 36.8466 104.269 36.6312 104.975 36.1982C105.43 35.9025 105.844 35.5478 106.206 35.1435C106.336 35.0034 106.512 34.9154 106.702 34.8959C106.892 34.8764 107.082 34.9268 107.237 35.0377L109.9 36.9902ZM104.959 29.4585C105.078 29.4568 105.194 29.4283 105.3 29.3752C105.406 29.322 105.498 29.2456 105.57 29.1517C105.642 29.0578 105.692 28.9487 105.716 28.8328C105.74 28.7169 105.737 28.597 105.708 28.4822C105.563 27.9307 105.277 27.4266 104.877 27.0198C104.551 26.6847 104.159 26.4216 103.726 26.2474C103.292 26.0731 102.827 25.9917 102.36 26.0083C101.796 25.9977 101.236 26.1003 100.713 26.3102C100.264 26.4979 99.8512 26.7633 99.4939 27.0943C99.162 27.3997 98.8953 27.7692 98.7098 28.1804C98.6706 28.2705 98.6353 28.3568 98.6 28.447C98.5619 28.5637 98.5518 28.6877 98.5704 28.8091C98.5891 28.9305 98.6359 29.0457 98.7073 29.1457C98.7786 29.2456 98.8724 29.3274 98.9811 29.3845C99.0898 29.4415 99.2104 29.4723 99.3332 29.4742L104.959 29.4585Z" fill="#333232"/>
<path d="M115.635 12.2505H119.717C119.925 12.2505 120.124 12.3331 120.271 12.4802C120.418 12.6272 120.501 12.8267 120.501 13.0346V39.864C120.501 40.072 120.418 40.2715 120.271 40.4185C120.124 40.5656 119.925 40.6482 119.717 40.6482H115.635C115.427 40.6482 115.228 40.5656 115.081 40.4185C114.934 40.2715 114.851 40.072 114.851 39.864V13.0229C114.854 12.8169 114.938 12.6205 115.085 12.476C115.232 12.3315 115.429 12.2505 115.635 12.2505Z" fill="#333232"/>
<path d="M123.931 31.5244C123.912 30.1767 124.179 28.8402 124.715 27.6037C125.217 26.4588 125.952 25.4308 126.872 24.5848C127.808 23.7335 128.905 23.0777 130.099 22.6558C132.658 21.7515 135.451 21.7515 138.011 22.6558C139.204 23.0777 140.301 23.7335 141.237 24.5848C142.157 25.4316 142.891 26.4595 143.394 27.6037C143.917 28.8516 144.186 30.191 144.186 31.5441C144.186 32.8971 143.917 34.2365 143.394 35.4844C142.891 36.6286 142.157 37.6565 141.237 38.5033C140.3 39.3532 139.203 40.0089 138.011 40.4323C135.45 41.3313 132.659 41.3313 130.099 40.4323C128.906 40.0089 127.809 39.3532 126.872 38.5033C125.952 37.6573 125.217 36.6293 124.715 35.4844C124.173 34.2358 123.906 32.8854 123.931 31.5244ZM129.558 31.5244C129.501 32.7473 129.923 33.9442 130.734 34.861C131.518 35.7131 132.625 36.1391 134.055 36.1391C135.484 36.1391 136.591 35.7131 137.375 34.861C138.187 33.9442 138.609 32.7473 138.552 31.5244C138.605 30.3009 138.184 29.1041 137.375 28.184C136.591 27.3319 135.484 26.9072 134.055 26.9098C132.625 26.9124 131.518 27.3371 130.734 28.184C129.924 29.1035 129.503 30.3008 129.558 31.5244Z" fill="#333232"/>
<path d="M146.734 31.5245C146.716 30.1769 146.984 28.8408 147.518 27.6038C148.021 26.4595 148.755 25.4317 149.675 24.5848C150.614 23.7248 151.717 23.0621 152.917 22.6363C155.478 21.7319 158.272 21.7319 160.833 22.6363C162.026 23.0582 163.123 23.714 164.06 24.5652C164.978 25.4131 165.712 26.4407 166.216 27.5842C166.736 28.8327 167.004 30.1719 167.004 31.5245C167.004 32.8771 166.736 34.2163 166.216 35.4648C165.712 36.6083 164.978 37.6359 164.06 38.4838C163.122 39.3337 162.026 39.9893 160.833 40.4128C158.271 41.312 155.479 41.312 152.917 40.4128C151.725 39.9893 150.628 39.3337 149.69 38.4838C148.771 37.637 148.037 36.6091 147.534 35.4648C146.991 34.2229 146.718 32.8798 146.734 31.5245ZM152.368 31.5245C152.311 32.7473 152.733 33.9442 153.545 34.861C154.329 35.7131 155.436 36.1392 156.865 36.1392C158.295 36.1392 159.402 35.7131 160.186 34.861C160.997 33.9442 161.419 32.7473 161.362 31.5245C161.416 30.301 160.994 29.1042 160.186 28.1841C159.402 27.332 158.295 26.9072 156.865 26.9098C155.436 26.9124 154.329 27.3372 153.545 28.1841C152.735 29.1035 152.314 30.3008 152.368 31.5245Z" fill="#333232"/>
<path d="M171.243 21.958H174.873C175.081 21.958 175.281 22.0406 175.428 22.1877C175.575 22.3347 175.657 22.5342 175.657 22.7421V24.8201H175.732C175.99 24.458 176.284 24.123 176.61 23.8203C177 23.4673 177.429 23.1595 177.888 22.9029C178.395 22.6233 178.93 22.3973 179.484 22.2285C180.08 22.0495 180.7 21.9609 181.323 21.9658C182.581 21.9528 183.83 22.1942 184.993 22.6755C186.066 23.1183 187.031 23.7869 187.823 24.6359C188.624 25.4963 189.241 26.5099 189.639 27.6156C190.077 28.8296 190.295 30.1123 190.282 31.403C190.287 32.646 190.089 33.8814 189.697 35.061C189.333 36.1821 188.774 37.2305 188.047 38.1584C187.339 39.0524 186.45 39.7871 185.44 40.3148C184.358 40.8571 183.16 41.1264 181.95 41.0989C180.833 41.1107 179.723 40.9277 178.668 40.5579C177.669 40.2062 176.799 39.5595 176.175 38.7034H176.1V51.7828C176.1 51.9908 176.018 52.1903 175.871 52.3373C175.724 52.4844 175.524 52.567 175.316 52.567H171.243C171.035 52.567 170.835 52.4844 170.688 52.3373C170.541 52.1903 170.458 51.9908 170.458 51.7828V22.7343C170.461 22.5277 170.544 22.3303 170.691 22.1849C170.838 22.0395 171.036 21.958 171.243 21.958ZM175.657 31.5245C175.6 32.7474 176.022 33.9443 176.834 34.8611C177.618 35.7132 178.725 36.1392 180.154 36.1392C181.584 36.1392 182.691 35.7132 183.475 34.8611C184.286 33.9443 184.708 32.7474 184.651 31.5245C184.705 30.301 184.283 29.1042 183.475 28.1841C182.691 27.332 181.584 26.9073 180.154 26.9099C178.725 26.9125 177.618 27.3372 176.834 28.1841C176.024 29.1034 175.602 30.3008 175.657 31.5245Z" fill="#333232"/>
</svg>
