<svg width="42" height="45" viewBox="0 0 42 45" fill="none" xmlns="http://www.w3.org/2000/svg">
<path d="M8.49525 7.24003L13.4162 12.1471C14.2322 12.9634 14.6906 14.0703 14.6906 15.2244C14.6906 16.3786 14.2322 17.4855 13.4162 18.3018L8.49525 23.22C8.00123 23.7184 7.39375 24.0896 6.72486 24.3018C6.05598 24.5141 5.34561 24.561 4.65461 24.4386C3.96362 24.3162 3.31258 24.0282 2.75726 23.5992C2.20195 23.1701 1.75891 22.6129 1.46608 21.9751C0.51458 19.8513 0.0227051 17.5503 0.0227051 15.223C0.0227051 12.8958 0.51458 10.5948 1.46608 8.47097C1.76029 7.83427 2.20437 7.27832 2.76033 6.85069C3.31629 6.42307 3.96757 6.13651 4.65845 6.01552C5.34933 5.89453 6.05924 5.94273 6.72743 6.15598C7.39562 6.36923 8.00219 6.74119 8.49525 7.24003Z" fill="#0BE048"/>
<path d="M25.4472 17.7057L17.3236 9.58208C16.8488 9.10599 16.4904 8.52661 16.2764 7.88917C16.0624 7.25173 15.9987 6.57347 16.0901 5.90731C16.1814 5.24116 16.4255 4.60513 16.8033 4.04887C17.181 3.4926 17.6822 3.03115 18.2677 2.70052C21.3968 0.930327 24.9308 0 28.526 0C32.1211 0 35.6551 0.930327 38.7843 2.70052C39.3698 3.03115 39.8709 3.4926 40.2487 4.04887C40.6264 4.60513 40.8705 5.24116 40.9619 5.90731C41.0533 6.57347 40.9895 7.25173 40.7755 7.88917C40.5615 8.52661 40.2032 9.10599 39.7284 9.58208L31.6019 17.7057C31.1981 18.1104 30.7185 18.4315 30.1904 18.6506C29.6623 18.8696 29.0963 18.9824 28.5246 18.9824C27.9529 18.9824 27.3868 18.8696 26.8587 18.6506C26.3307 18.4315 25.851 18.1104 25.4472 17.7057Z" fill="#09BA3B"/>
<path d="M32.5154 37.774L27.5944 32.8614C26.7784 32.0451 26.3201 30.9382 26.3201 29.784C26.3201 28.6298 26.7784 27.5229 27.5944 26.7067L32.5154 21.7885C33.0088 21.288 33.6162 20.9148 34.2857 20.7009C34.9551 20.487 35.6664 20.4388 36.3586 20.5604C37.0507 20.682 37.703 20.9698 38.2594 21.3991C38.8158 21.8284 39.2597 22.3863 39.5529 23.025C40.5044 25.1488 40.9963 27.4498 40.9963 29.777C40.9963 32.1043 40.5044 34.4053 39.5529 36.5291C39.2605 37.1684 38.8173 37.7271 38.2612 38.1573C37.7052 38.5874 37.0531 38.8761 36.3609 38.9986C35.6686 39.121 34.957 39.0735 34.2872 38.8602C33.6174 38.6469 33.0093 38.2742 32.5154 37.774Z" fill="#0BE048"/>
<path d="M15.5635 27.2915L23.6788 35.418C24.1536 35.8941 24.512 36.4735 24.7259 37.1109C24.9399 37.7483 25.0037 38.4266 24.9123 39.0928C24.8209 39.7589 24.5768 40.3949 24.1991 40.9512C23.8214 41.5075 23.3202 41.9689 22.7347 42.2995C19.6055 44.0697 16.0716 45.0001 12.4764 45.0001C8.88124 45.0001 5.34726 44.0697 2.2181 42.2995C1.63261 41.9689 1.13145 41.5075 0.753712 40.9512C0.375976 40.3949 0.131889 39.7589 0.0404982 39.0928C-0.0508925 38.4266 0.0128856 37.7483 0.226855 37.1109C0.440825 36.4735 0.799199 35.8941 1.27401 35.418L9.4088 27.2915C9.8126 26.8869 10.2923 26.5658 10.8203 26.3467C11.3484 26.1277 11.9145 26.0149 12.4861 26.0149C13.0578 26.0149 13.6239 26.1277 14.152 26.3467C14.68 26.5658 15.1597 26.8869 15.5635 27.2915Z" fill="#09BA3B"/>
</svg>
