<svg width="25" height="17" viewBox="0 0 25 17" fill="none" xmlns="http://www.w3.org/2000/svg">
<path d="M12.0969 0.0184446C13.1266 0.0184446 14.1564 -0.000795463 15.1861 0.0230514C16.7022 0.0591829 18.2178 0.112658 19.733 0.183475C20.2994 0.210574 20.8741 0.248241 21.425 0.371269C22.4548 0.601066 23.1737 1.22948 23.555 2.22807C23.8054 2.88304 23.9311 3.56187 24.0027 4.25722C24.214 6.31075 24.1924 8.36971 24.1517 10.4284C24.1311 11.4706 24.0661 12.515 23.8889 13.5431C23.8168 13.9623 23.6867 14.3767 23.5382 14.7766C23.1499 15.8224 22.3678 16.4348 21.2925 16.641C20.7191 16.7511 20.1273 16.7833 19.5422 16.8085C18.0767 16.8719 16.6106 16.9216 15.1438 16.9576C14.0201 16.9846 12.8947 17.0117 11.7717 16.9947C9.68997 16.9657 7.60933 16.9115 5.52816 16.8554C4.66642 16.8324 3.80522 16.782 2.95378 16.624C2.26548 16.4963 1.65549 16.215 1.17476 15.6918C0.833314 15.3205 0.653378 14.8631 0.49729 14.3943C0.287818 13.7691 0.216819 13.1193 0.153137 12.467C-0.0368245 10.5029 -0.0113518 8.53393 0.0271283 6.56548C0.0477233 5.51432 0.112489 4.46181 0.292695 3.42393C0.371587 2.99807 0.491376 2.5808 0.650398 2.17794C1.06013 1.11106 1.87444 0.50324 2.98088 0.321137C3.64209 0.212742 4.31847 0.176701 4.98971 0.153396C6.79367 0.090798 8.59898 0.0487951 10.404 0.00652118C10.9679 -0.00675717 11.5327 0.00435328 12.0969 0.00435328V0.0184446ZM9.6038 4.84634V11.6253L16.1164 8.24614L9.6038 4.84634Z" fill="#0BE048"/>
</svg>
