<svg width="23" height="20" viewBox="0 0 23 20" fill="none" xmlns="http://www.w3.org/2000/svg">
<path d="M19.4524 0.720703H3.57545C2.62719 0.720703 1.71775 1.10141 1.04723 1.77908C0.376699 2.45675 0 3.37587 0 4.33423L0 15.5129C0 16.4713 0.376699 17.3904 1.04723 18.0681C1.71775 18.7458 2.62719 19.1265 3.57545 19.1265H19.4524C20.3959 19.119 21.2981 18.735 21.9626 18.0582C22.6272 17.3813 23 16.4664 23 15.5129V4.33423C23 3.38073 22.6272 2.46586 21.9626 1.78899C21.2981 1.11213 20.3959 0.728138 19.4524 0.720703V0.720703ZM12.873 10.1243C12.7036 10.3205 12.4947 10.4778 12.2604 10.5859C12.026 10.694 11.7716 10.7504 11.5139 10.7512C11.2507 10.7541 10.9899 10.6995 10.7494 10.5913C10.5088 10.4832 10.2942 10.3239 10.12 10.1243L3.92394 2.9818H19.1039L12.873 10.1243ZM2.23727 4.4892L8.51 11.6388C8.89002 12.0748 9.35756 12.4241 9.88151 12.6634C10.4055 12.9026 10.9738 13.0263 11.5488 13.0263C12.1237 13.0263 12.6921 12.9026 13.2161 12.6634C13.74 12.4241 14.2076 12.0748 14.5876 11.6388L20.7836 4.47511V15.5129C20.7921 15.6949 20.764 15.8767 20.7009 16.0473C20.6378 16.2179 20.5411 16.3738 20.4166 16.5055C20.2922 16.6372 20.1425 16.7421 19.9768 16.8136C19.811 16.8851 19.6326 16.9219 19.4524 16.9217H3.57545C3.39493 16.9219 3.21624 16.8851 3.05014 16.8137C2.88404 16.7422 2.73396 16.6375 2.60894 16.5059C2.48393 16.3743 2.38655 16.2185 2.32267 16.0478C2.2588 15.8772 2.22975 15.6952 2.23727 15.5129V4.4892Z" fill="#0BE048"/>
</svg>
