<svg width="23" height="24" viewBox="0 0 23 24" fill="none" xmlns="http://www.w3.org/2000/svg">
<path d="M17.435 4.87111C17.1694 4.86981 16.9094 4.94898 16.688 5.09856C16.4666 5.24814 16.2939 5.46139 16.1916 5.71123C16.0894 5.96107 16.0623 6.23624 16.1138 6.50179C16.1653 6.76735 16.2931 7.01132 16.4809 7.20274C16.6687 7.39415 16.9081 7.52436 17.1687 7.57686C17.4292 7.62935 17.6992 7.60175 17.9443 7.49756C18.1895 7.39337 18.3987 7.21729 18.5455 6.99167C18.6923 6.76606 18.7699 6.50108 18.7687 6.23039C18.767 5.87042 18.6259 5.52568 18.3762 5.27114C18.1264 5.0166 17.7882 4.87284 17.435 4.87111Z" fill="#0BE048"/>
<path d="M11.4946 6.62988C10.3847 6.62988 9.29973 6.96531 8.37687 7.59375C7.45401 8.22219 6.73473 9.11541 6.30999 10.1605C5.88524 11.2055 5.77411 12.3555 5.99064 13.4649C6.20718 14.5743 6.74165 15.5934 7.52648 16.3932C8.3113 17.1931 9.31123 17.7378 10.3998 17.9585C11.4884 18.1791 12.6168 18.0659 13.6422 17.633C14.6676 17.2001 15.544 16.4671 16.1607 15.5266C16.7773 14.586 17.1064 13.4803 17.1064 12.3491C17.103 10.8333 16.5107 9.38065 15.459 8.30884C14.4073 7.23703 12.9819 6.63335 11.4946 6.62988ZM11.4946 16.0131C10.7836 16.0131 10.0885 15.7982 9.49726 15.3956C8.90604 14.993 8.44524 14.4208 8.17313 13.7513C7.90102 13.0818 7.82982 12.3451 7.96854 11.6343C8.10726 10.9236 8.44967 10.2707 8.95246 9.75829C9.45525 9.24587 10.0959 8.89691 10.7932 8.75553C11.4906 8.61416 12.2135 8.68672 12.8704 8.96404C13.5274 9.24135 14.0889 9.71098 14.4839 10.3135C14.8789 10.9161 15.0898 11.6245 15.0898 12.3491C15.0847 13.3181 14.7039 14.2456 14.0304 14.9296C13.3569 15.6135 12.4454 15.9983 11.4946 16V16.0131Z" fill="#0BE048"/>
<path d="M15.9463 23.9521H6.84886C5.03295 23.9504 3.29191 23.2145 2.00787 21.9059C0.723828 20.5972 0.00170588 18.8229 0 16.9722L0 7.70064C0.00170588 5.84998 0.723828 4.07562 2.00787 2.767C3.29191 1.45838 5.03295 0.722442 6.84886 0.720703H15.9463C17.7622 0.722442 19.5033 1.45838 20.7873 2.767C22.0713 4.07562 22.7935 5.84998 22.7952 7.70064V16.9722C22.7935 18.8229 22.0713 20.5972 20.7873 21.9059C19.5033 23.2145 17.7622 23.9504 15.9463 23.9521ZM6.84886 2.90727C5.60145 2.90727 4.40513 3.41228 3.52308 4.31122C2.64103 5.21015 2.1455 6.42936 2.1455 7.70064V16.9722C2.1455 18.2435 2.64103 19.4627 3.52308 20.3616C4.40513 21.2606 5.60145 21.7656 6.84886 21.7656H15.9463C17.1937 21.7656 18.39 21.2606 19.2721 20.3616C20.1541 19.4627 20.6497 18.2435 20.6497 16.9722V7.70064C20.6497 7.07117 20.528 6.44786 20.2916 5.8663C20.0553 5.28474 19.7088 4.75632 19.2721 4.31122C18.8353 3.86611 18.3168 3.51303 17.7462 3.27214C17.1756 3.03125 16.564 2.90727 15.9463 2.90727H6.84886Z" fill="#0BE048"/>
</svg>
