<svg width="231" height="56" viewBox="0 0 231 56" fill="none" xmlns="http://www.w3.org/2000/svg">
<path d="M27.4499 55.6106C22.7116 55.6115 18.0538 54.3856 13.9299 52.0523C9.80597 49.7189 6.35638 46.3577 3.91689 42.2956C1.4774 38.2336 0.131129 33.6092 0.00910433 28.8725C-0.112921 24.1358 0.993462 19.4481 3.22056 15.2659C5.44766 11.0836 8.71961 7.54921 12.7179 5.00664C16.7163 2.46407 21.3047 0.999977 26.0368 0.756859C30.7688 0.51374 35.4832 1.49988 39.721 3.6193C43.9589 5.73872 47.5758 8.91921 50.2198 12.8512C50.687 13.5055 50.9008 14.3072 50.8214 15.1073C50.742 15.9074 50.3748 16.6514 49.7882 17.2011L29.7706 37.2187C29.1483 37.8407 28.3045 38.1901 27.4247 38.1901C26.5448 38.1901 25.701 37.8407 25.0787 37.2187L18.3324 30.4724C17.7106 29.8502 17.3614 29.0065 17.3617 28.1268C17.3619 27.2472 17.7116 26.4037 18.3338 25.7819C18.956 25.1601 19.7997 24.8109 20.6793 24.8112C21.559 24.8114 22.4025 25.1611 23.0243 25.7833L27.4247 30.1809L43.1203 14.4852C39.9142 10.8137 35.5208 8.38421 30.7065 7.62067C25.8923 6.85712 20.9628 7.80795 16.7779 10.3073C12.593 12.8066 9.4184 16.6958 7.80782 21.2965C6.19723 25.8971 6.25292 30.9172 7.96515 35.481C9.67739 40.0448 12.9375 43.8626 17.1768 46.2685C21.4161 48.6744 26.3655 49.5156 31.1616 48.6455C35.9577 47.7753 40.2961 45.249 43.4201 41.5072C46.544 37.7654 48.2551 33.0457 48.255 28.1713C48.255 27.8069 48.255 27.4173 48.2186 26.9801C48.1826 26.1093 48.4906 25.2592 49.0761 24.6136C49.6617 23.968 50.4777 23.5786 51.3479 23.5297C52.2181 23.4807 53.0726 23.7761 53.7268 24.3519C54.3811 24.9278 54.7825 25.7379 54.8444 26.6073C54.8752 27.1679 54.8893 27.6808 54.8893 28.1713C54.8818 35.4464 51.9885 42.4214 46.8443 47.5656C41.7 52.7099 34.725 55.6032 27.4499 55.6106Z" fill="#333232"/>
<path d="M83.2059 33.3761V38.6454H67.5522V17.7197H73.4605V33.3761H83.2059Z" fill="#333232"/>
<path d="M84.9297 28.1686C84.9297 22.2828 90.1373 17.3555 96.3202 17.3555C102.503 17.3555 107.711 22.2884 107.711 28.1686C107.711 34.0489 102.5 39.0099 96.3202 39.0099C90.1401 39.0099 84.9297 34.0461 84.9297 28.1686ZM101.618 28.1686C101.618 25.2145 99.1819 22.7172 96.3202 22.7172C93.4586 22.7172 91.0202 25.2145 91.0202 28.1686C91.0202 31.1228 93.4558 33.6509 96.3202 33.6509C99.1847 33.6509 101.629 31.1536 101.629 28.1686H101.618Z" fill="#333232"/>
<path d="M109.76 28.1686C109.76 22.2828 114.967 17.3555 121.15 17.3555C127.333 17.3555 132.541 22.2884 132.541 28.1686C132.541 34.0489 127.333 39.0099 121.15 39.0099C114.967 39.0099 109.76 34.0461 109.76 28.1686ZM126.45 28.1686C126.45 25.2145 124.012 22.7172 121.15 22.7172C118.289 22.7172 115.85 25.2145 115.85 28.1686C115.85 31.1228 118.286 33.6509 121.15 33.6509C124.015 33.6509 126.45 31.1536 126.45 28.1686Z" fill="#333232"/>
<path d="M135.38 17.7197H145.4C150.089 17.7197 153.41 20.7355 153.41 25.0294C153.41 29.3233 150.089 32.3391 145.4 32.3391H141.28V38.6454H135.38V17.7197ZM144.909 26.9689C146.311 26.9689 147.314 26.1449 147.314 25.007C147.314 23.8691 146.311 23.045 144.909 23.045H141.28V26.9802L144.909 26.9689Z" fill="#333232"/>
<path d="M163.629 20.5842H156.776V17.7197H173.593V20.5842H166.704V38.6454H163.621L163.629 20.5842Z" fill="#333232"/>
<path d="M180.197 20.5842V26.5541H191.282V29.4158H180.197V35.7809H192.47V38.6454H177.088V17.7197H192.47V20.5842H180.197Z" fill="#333232"/>
<path d="M195.208 35.6296L197.067 33.3453C198.925 35.1111 201.117 36.2687 203.95 36.2687C206.843 36.2687 208.337 34.7467 208.337 33.0707C208.337 31.0919 206.599 30.3295 203.098 29.5391C198.832 28.5329 196.002 27.2549 196.002 23.4767C196.002 19.976 199.046 17.3105 203.25 17.3105C206.479 17.3105 208.883 18.4989 210.893 20.2647L209.127 22.5854C207.361 20.971 205.259 20.0265 203.129 20.0265C200.783 20.0265 199.138 21.5203 199.138 23.1936C199.138 25.1556 200.935 25.8142 204.376 26.6354C208.55 27.6108 211.442 29.0122 211.442 32.7567C211.442 36.2911 208.763 38.9705 203.83 38.9705C200.326 38.979 197.434 37.7597 195.208 35.6296Z" fill="#333232"/>
<path d="M221.036 20.5842H214.183V17.7197H231V20.5842H224.111V38.6454H221.028L221.036 20.5842Z" fill="#333232"/>
</svg>
