<svg width="190" height="45" viewBox="0 0 190 45" fill="none" xmlns="http://www.w3.org/2000/svg">
<path d="M22.504 45C18.6195 45.0007 14.8009 43.9957 11.42 42.0828C8.03915 40.1698 5.2111 37.4142 3.21116 34.0841C1.21121 30.7539 0.107503 26.9627 0.00746393 23.0794C-0.0925748 19.1962 0.814462 15.3532 2.64029 11.9245C4.46612 8.49576 7.14853 5.59817 10.4264 3.51371C13.7044 1.42926 17.4661 0.228955 21.3455 0.0296412C25.225 -0.169673 29.0899 0.638789 32.5642 2.37633C36.0385 4.11388 39.0037 6.72132 41.1713 9.94486C41.5543 10.4813 41.7296 11.1385 41.6645 11.7944C41.5994 12.4504 41.2984 13.0603 40.8175 13.511L24.4066 29.9219C23.8964 30.4318 23.2047 30.7182 22.4834 30.7182C21.7621 30.7182 21.0703 30.4318 20.5601 29.9219L15.0293 24.3911C14.5195 23.881 14.2333 23.1893 14.2335 22.4682C14.2337 21.747 14.5204 21.0555 15.0305 20.5457C15.5405 20.036 16.2322 19.7497 16.9534 19.7499C17.6745 19.7501 18.3661 20.0368 18.8758 20.5469L22.4834 24.1521L35.351 11.2845C32.7225 8.27444 29.1207 6.28272 25.1739 5.65674C21.2271 5.03077 17.1858 5.81028 13.7549 7.85929C10.324 9.90831 7.72141 13.0968 6.40102 16.8685C5.08063 20.6402 5.12628 24.7557 6.53001 28.4972C7.93374 32.2387 10.6065 35.3687 14.0819 37.3411C17.5574 39.3135 21.615 40.0032 25.547 39.2898C29.4789 38.5764 33.0357 36.5053 35.5967 33.4377C38.1578 30.3701 39.5606 26.5007 39.5606 22.5046C39.5606 22.2059 39.5606 21.8865 39.5307 21.528C39.5012 20.8141 39.7537 20.1172 40.2337 19.5879C40.7137 19.0586 41.3827 18.7395 42.0961 18.6993C42.8095 18.6592 43.5101 18.9013 44.0465 19.3734C44.5828 19.8455 44.9119 20.5097 44.9627 21.2224C44.988 21.682 44.9994 22.1025 44.9994 22.5046C44.9934 28.4689 42.6214 34.1871 38.404 38.4045C34.1866 42.6219 28.4683 44.9939 22.504 45Z" fill="#18D17D"/>
<path d="M68.214 26.7715V31.0914H55.3809V13.936H60.2246V26.7715H68.214Z" fill="#333232"/>
<path d="M69.627 22.5023C69.627 17.677 73.8963 13.6375 78.9652 13.6375C84.0341 13.6375 88.3034 17.6816 88.3034 22.5023C88.3034 27.3231 84.0318 31.3902 78.9652 31.3902C73.8986 31.3902 69.627 27.3208 69.627 22.5023ZM83.308 22.5023C83.308 20.0805 81.3112 18.0331 78.9652 18.0331C76.6191 18.0331 74.6201 20.0805 74.6201 22.5023C74.6201 24.9242 76.6168 26.9968 78.9652 26.9968C81.3135 26.9968 83.3172 24.9495 83.3172 22.5023H83.308Z" fill="#333232"/>
<path d="M89.9834 22.5023C89.9834 17.677 94.2527 13.6375 99.3216 13.6375C104.391 13.6375 108.66 17.6816 108.66 22.5023C108.66 27.3231 104.391 31.3902 99.3216 31.3902C94.2527 31.3902 89.9834 27.3208 89.9834 22.5023ZM103.667 22.5023C103.667 20.0805 101.668 18.0331 99.3216 18.0331C96.9756 18.0331 94.9765 20.0805 94.9765 22.5023C94.9765 24.9242 96.9733 26.9968 99.3216 26.9968C101.67 26.9968 103.667 24.9495 103.667 22.5023Z" fill="#333232"/>
<path d="M110.987 13.936H119.202C123.046 13.936 125.769 16.4085 125.769 19.9287C125.769 23.4489 123.046 25.9213 119.202 25.9213H115.824V31.0914H110.987V13.936ZM118.8 21.5188C119.949 21.5188 120.771 20.8432 120.771 19.9103C120.771 18.9774 119.949 18.3018 118.8 18.3018H115.824V21.5279L118.8 21.5188Z" fill="#333232"/>
<path d="M134.147 16.2844H128.529V13.936H142.316V16.2844H136.668V31.0914H134.14L134.147 16.2844Z" fill="#333232"/>
<path d="M147.729 16.2844V21.1787H156.817V23.5247H147.729V28.743H157.791V31.0914H145.181V13.936H157.791V16.2844H147.729Z" fill="#333232"/>
<path d="M160.036 28.619L161.56 26.7463C163.083 28.1939 164.88 29.1429 167.203 29.1429C169.574 29.1429 170.799 27.8952 170.799 26.5211C170.799 24.8988 169.374 24.2738 166.504 23.6259C163.007 22.801 160.686 21.7532 160.686 18.6557C160.686 15.7858 163.182 13.6006 166.629 13.6006C169.276 13.6006 171.247 14.5749 172.895 16.0225L171.447 17.925C169.999 16.6015 168.276 15.8271 166.53 15.8271C164.606 15.8271 163.258 17.0519 163.258 18.4237C163.258 20.0321 164.731 20.5721 167.552 21.2453C170.974 22.045 173.345 23.1939 173.345 26.2637C173.345 29.1612 171.148 31.3579 167.104 31.3579C164.232 31.3648 161.861 30.3653 160.036 28.619Z" fill="#333232"/>
<path d="M181.21 16.2844H175.592V13.936H189.379V16.2844H183.731V31.0914H181.204L181.21 16.2844Z" fill="#333232"/>
</svg>
