<svg width="265" height="89" viewBox="0 0 265 89" fill="none" xmlns="http://www.w3.org/2000/svg">
<path d="M16.6157 14.1604L26.2404 23.7579C27.8363 25.3544 28.7328 27.5194 28.7328 29.7767C28.7328 32.0341 27.8363 34.1991 26.2404 35.7956L16.6157 45.4148C15.6495 46.3896 14.4613 47.1156 13.1531 47.5307C11.8449 47.9459 10.4555 48.0377 9.104 47.7983C7.75251 47.559 6.47918 46.9956 5.39307 46.1564C4.30695 45.3173 3.44043 44.2274 2.86771 42.9801C1.00671 38.8261 0.0446777 34.3258 0.0446777 29.774C0.0446777 25.2223 1.00671 20.7219 2.86771 16.568C3.44314 15.3227 4.3117 14.2353 5.39907 13.3989C6.48644 12.5626 7.76025 12.0021 9.11151 11.7655C10.4628 11.5288 11.8512 11.6231 13.1581 12.0402C14.465 12.4573 15.6514 13.1848 16.6157 14.1604Z" fill="#0BE048"/>
<path d="M49.771 34.6298L33.8824 18.7411C32.9537 17.81 32.2528 16.6768 31.8343 15.43C31.4158 14.1833 31.2911 12.8567 31.4698 11.5538C31.6486 10.2509 32.126 9.00695 32.8648 7.91898C33.6036 6.83101 34.5838 5.92848 35.7289 5.28181C41.8491 1.81958 48.761 0 55.7926 0C62.8242 0 69.7362 1.81958 75.8563 5.28181C77.0014 5.92848 77.9817 6.83101 78.7204 7.91898C79.4592 9.00695 79.9366 10.2509 80.1154 11.5538C80.2941 12.8567 80.1694 14.1833 79.7509 15.43C79.3324 16.6768 78.6315 17.81 77.7028 18.7411L61.8087 34.6298C61.0189 35.4213 60.0808 36.0493 59.048 36.4777C58.0152 36.9062 56.908 37.1267 55.7899 37.1267C54.6717 37.1267 53.5646 36.9062 52.5318 36.4777C51.499 36.0493 50.5608 35.4213 49.771 34.6298Z" fill="#09BA3B"/>
<path d="M63.5951 73.8803L53.9704 64.272C52.3745 62.6755 51.478 60.5105 51.478 58.2531C51.478 55.9957 52.3745 53.8308 53.9704 52.2343L63.5951 42.615C64.5601 41.6362 65.7483 40.9063 67.0575 40.4879C68.3668 40.0695 69.7581 39.9752 71.1118 40.2131C72.4656 40.4509 73.7414 41.0139 74.8296 41.8535C75.9178 42.6931 76.786 43.7843 77.3595 45.0335C79.2205 49.1874 80.1825 53.6878 80.1825 58.2395C80.1825 62.7913 79.2205 67.2916 77.3595 71.4455C76.7876 72.6959 75.9207 73.7887 74.8332 74.63C73.7457 75.4712 72.4702 76.0359 71.1163 76.2754C69.7624 76.5149 68.3706 76.422 67.0605 76.0049C65.7504 75.5877 64.5613 74.8586 63.5951 73.8803Z" fill="#0BE048"/>
<path d="M30.4399 53.3783L46.3122 69.2724C47.2409 70.2036 47.9418 71.3367 48.3603 72.5835C48.7788 73.8302 48.9035 75.1568 48.7248 76.4597C48.546 77.7626 48.0686 79.0066 47.3298 80.0945C46.591 81.1825 45.6108 82.085 44.4657 82.7317C38.3455 86.1939 31.4336 88.0135 24.402 88.0135C17.3704 88.0135 10.4584 86.1939 4.33828 82.7317C3.19315 82.085 2.21294 81.1825 1.47415 80.0945C0.735353 79.0066 0.257955 77.7626 0.0792084 76.4597C-0.0995381 75.1568 0.0252024 73.8302 0.443695 72.5835C0.862188 71.3367 1.56311 70.2036 2.49177 69.2724L18.4022 53.3783C19.192 52.5868 20.1301 51.9588 21.1629 51.5304C22.1957 51.1019 23.3029 50.8813 24.421 50.8813C25.5392 50.8813 26.6464 51.1019 27.6792 51.5304C28.712 51.9588 29.6501 52.5868 30.4399 53.3783Z" fill="#09BA3B"/>
<path d="M96.3639 19.6348C96.3639 19.3459 96.4787 19.0688 96.683 18.8645C96.8873 18.6602 97.1644 18.5454 97.4533 18.5454H110.134C111.748 18.5464 113.361 18.6611 114.96 18.8886C116.479 19.0847 117.953 19.5417 119.317 20.2394C120.583 20.908 121.658 21.8861 122.444 23.0827C123.305 24.5482 123.721 26.2325 123.642 27.9304C123.709 29.814 123.087 31.6572 121.894 33.1159C120.673 34.5238 119.071 35.5474 117.28 36.0627V36.1662C118.432 36.3208 119.551 36.6631 120.592 37.1793C121.543 37.6695 122.398 38.3284 123.114 39.1239C123.831 39.916 124.386 40.8413 124.748 41.8473C125.145 42.9232 125.346 44.0614 125.342 45.2081C125.404 46.9176 124.971 48.6088 124.094 50.0776C123.277 51.3658 122.171 52.4457 120.864 53.2314C119.487 54.0528 117.98 54.6347 116.409 54.9526C114.789 55.305 113.137 55.4875 111.479 55.4973H97.4424C97.1535 55.4973 96.8764 55.3825 96.6721 55.1782C96.4678 54.9739 96.353 54.6968 96.353 54.4079L96.3639 19.6348ZM104.496 32.2335C104.496 32.5224 104.611 32.7995 104.815 33.0038C105.02 33.2081 105.297 33.3229 105.586 33.3229H110.406C111.028 33.3228 111.647 33.2516 112.253 33.1105C112.832 32.9805 113.385 32.7521 113.887 32.435C114.371 32.1166 114.773 31.6871 115.058 31.1823C115.366 30.6049 115.518 29.9572 115.499 29.3031C115.525 28.6361 115.352 27.9764 115.003 27.4075C114.685 26.9138 114.246 26.5089 113.729 26.231C113.171 25.9465 112.574 25.7446 111.958 25.6318C111.321 25.5141 110.673 25.454 110.025 25.4521H105.575C105.286 25.4521 105.009 25.5669 104.804 25.7712C104.6 25.9755 104.485 26.2526 104.485 26.5415L104.496 32.2335ZM104.496 47.4849C104.496 47.7738 104.611 48.0509 104.815 48.2552C105.02 48.4595 105.297 48.5742 105.586 48.5742H111.811C112.45 48.5737 113.087 48.5062 113.712 48.3727C114.336 48.2435 114.93 47.9957 115.461 47.6428C115.974 47.2923 116.404 46.833 116.719 46.2974C117.063 45.675 117.233 44.9711 117.209 44.2603C117.25 43.5039 117.027 42.7568 116.577 42.1469C116.146 41.6062 115.583 41.1845 114.943 40.9213C114.246 40.6322 113.513 40.438 112.765 40.344C112.059 40.2438 111.347 40.1911 110.635 40.186H105.553C105.264 40.186 104.987 40.3008 104.783 40.5051C104.578 40.7094 104.463 40.9865 104.463 41.2754L104.496 47.4849Z" fill="#161616"/>
<path d="M152.68 50.3881C152.805 50.4798 152.909 50.5974 152.985 50.7327C153.062 50.8681 153.108 51.0182 153.121 51.173C153.135 51.3277 153.115 51.4836 153.063 51.63C153.011 51.7765 152.929 51.9102 152.821 52.0222C151.699 53.1929 150.359 54.1345 148.878 54.7946C147.017 55.655 144.991 56.1011 142.941 56.1019C141.067 56.1191 139.206 55.8018 137.445 55.165C135.787 54.5781 134.263 53.6671 132.962 52.4851C131.681 51.3117 130.661 49.8829 129.966 48.291C129.239 46.5574 128.865 44.6966 128.865 42.8169C128.865 40.9372 129.239 39.0763 129.966 37.3427C130.661 35.7508 131.681 34.3221 132.962 33.1486C134.262 31.9648 135.786 31.0535 137.445 30.4687C139.206 29.8302 141.067 29.5111 142.941 29.5264C144.622 29.505 146.289 29.8256 147.843 30.4687C149.28 31.0636 150.563 31.9804 151.59 33.1486C152.652 34.3754 153.459 35.8011 153.965 37.3427C154.538 39.1007 154.82 40.9407 154.798 42.7896V44.1623C154.798 44.4512 154.684 44.7283 154.479 44.9326C154.275 45.1369 153.998 45.2516 153.709 45.2516H138.158C137.979 45.2546 137.803 45.3018 137.646 45.389C137.489 45.4763 137.357 45.6009 137.26 45.7518C137.163 45.9027 137.104 46.0752 137.09 46.254C137.076 46.4328 137.106 46.6124 137.178 46.7768C137.536 47.5623 138.062 48.2596 138.719 48.8194C139.797 49.7191 141.167 50.1921 142.57 50.1484C143.72 50.1887 144.857 49.8893 145.838 49.2878C146.471 48.8769 147.046 48.3843 147.549 47.8226C147.729 47.628 147.973 47.5057 148.237 47.4786C148.501 47.4515 148.765 47.5215 148.981 47.6755L152.68 50.3881ZM145.817 39.9246C145.981 39.9222 146.143 39.8826 146.29 39.8088C146.437 39.7349 146.565 39.6288 146.665 39.4983C146.765 39.3678 146.834 39.2164 146.868 39.0553C146.901 38.8942 146.897 38.7277 146.857 38.5683C146.655 37.802 146.257 37.1017 145.702 36.5366C145.25 36.0711 144.705 35.7055 144.103 35.4634C143.5 35.2214 142.854 35.1082 142.205 35.1313C141.422 35.1165 140.644 35.2592 139.918 35.5507C139.293 35.8115 138.72 36.1802 138.224 36.6401C137.762 37.0644 137.392 37.5776 137.134 38.1489C137.08 38.2741 137.031 38.394 136.982 38.5193C136.929 38.6814 136.915 38.8537 136.941 39.0223C136.966 39.191 137.031 39.3511 137.131 39.49C137.23 39.6288 137.36 39.7424 137.511 39.8217C137.662 39.901 137.83 39.9437 138 39.9463L145.817 39.9246Z" fill="#161616"/>
<path d="M160.648 16.0176H166.319C166.608 16.0176 166.885 16.1324 167.089 16.3367C167.293 16.541 167.408 16.818 167.408 17.107V54.3802C167.408 54.6691 167.293 54.9462 167.089 55.1505C166.885 55.3548 166.608 55.4696 166.319 55.4696H160.648C160.36 55.4696 160.082 55.3548 159.878 55.1505C159.674 54.9462 159.559 54.6691 159.559 54.3802V17.0906C159.563 16.8045 159.68 16.5316 159.884 16.3309C160.088 16.1301 160.362 16.0175 160.648 16.0176Z" fill="#161616"/>
<path d="M172.174 42.795C172.146 40.9226 172.518 39.0658 173.263 37.348C173.96 35.7575 174.981 34.3292 176.259 33.1539C177.56 31.9713 179.084 31.0602 180.742 30.474C184.298 29.2176 188.178 29.2176 191.734 30.474C193.391 31.0602 194.916 31.9713 196.217 33.1539C197.494 34.3304 198.514 35.7583 199.212 37.348C199.939 39.0816 200.313 40.9425 200.313 42.8222C200.313 44.7019 199.939 46.5627 199.212 48.2963C198.514 49.886 197.494 51.314 196.217 52.4905C194.914 53.6712 193.39 54.5821 191.734 55.1703C188.176 56.4193 184.299 56.4193 180.742 55.1703C179.085 54.5821 177.562 53.6712 176.259 52.4905C174.981 51.3152 173.96 49.8869 173.263 48.2963C172.51 46.5618 172.139 44.6856 172.174 42.795ZM179.99 42.795C179.911 44.4938 180.497 46.1566 181.624 47.4303C182.714 48.6141 184.252 49.206 186.238 49.206C188.224 49.206 189.762 48.6141 190.851 47.4303C191.978 46.1566 192.565 44.4938 192.485 42.795C192.56 41.0952 191.974 39.4325 190.851 38.1542C189.762 36.9704 188.224 36.3803 186.238 36.3839C184.252 36.3876 182.714 36.9776 181.624 38.1542C180.5 39.4316 179.914 41.0949 179.99 42.795Z" fill="#161616"/>
<path d="M203.853 42.7948C203.828 40.9227 204.2 39.0664 204.943 37.3479C205.641 35.7582 206.661 34.3302 207.938 33.1538C209.244 31.9589 210.775 31.0383 212.443 30.4467C216.001 29.1903 219.882 29.1903 223.44 30.4467C225.098 31.0328 226.622 31.9439 227.923 33.1265C229.199 34.3044 230.218 35.732 230.919 37.3207C231.642 39.0552 232.014 40.9157 232.014 42.7948C232.014 44.6739 231.642 46.5344 230.919 48.269C230.218 49.8576 229.199 51.2852 227.923 52.4631C226.621 53.6438 225.097 54.5547 223.44 55.143C219.881 56.3923 216.002 56.3923 212.443 55.143C210.786 54.5547 209.263 53.6438 207.96 52.4631C206.683 51.2866 205.663 49.8587 204.964 48.269C204.21 46.5437 203.831 44.6777 203.853 42.7948ZM211.68 42.7948C211.601 44.4937 212.188 46.1565 213.315 47.4301C214.404 48.6139 215.942 49.2058 217.928 49.2058C219.914 49.2058 221.452 48.6139 222.542 47.4301C223.669 46.1565 224.255 44.4937 224.176 42.7948C224.25 41.095 223.664 39.4323 222.542 38.154C221.452 36.9702 219.914 36.3802 217.928 36.3838C215.942 36.3874 214.404 36.9775 213.315 38.154C212.19 39.4315 211.605 41.0948 211.68 42.7948Z" fill="#161616"/>
<path d="M237.902 29.5044H242.946C243.235 29.5044 243.512 29.6192 243.716 29.8235C243.92 30.0278 244.035 30.3049 244.035 30.5938V33.4806H244.139C244.497 32.9776 244.906 32.5122 245.359 32.0917C245.901 31.6012 246.496 31.1736 247.134 30.8171C247.839 30.4287 248.582 30.1147 249.351 29.8802C250.18 29.6315 251.041 29.5084 251.906 29.5153C253.654 29.4972 255.389 29.8325 257.004 30.5012C258.495 31.1164 259.837 32.0452 260.937 33.2246C262.049 34.42 262.906 35.8282 263.459 37.3643C264.068 39.0509 264.371 40.8329 264.352 42.626C264.359 44.3528 264.085 46.0692 263.541 47.708C263.034 49.2655 262.258 50.7219 261.247 52.011C260.264 53.253 259.03 54.2738 257.625 55.0068C256.122 55.7603 254.458 56.1344 252.777 56.0962C251.226 56.1127 249.683 55.8583 248.218 55.3446C246.83 54.856 245.622 53.9576 244.754 52.7682H244.651V70.9391C244.651 71.228 244.536 71.5051 244.332 71.7094C244.127 71.9137 243.85 72.0285 243.561 72.0285H237.902C237.613 72.0285 237.336 71.9137 237.132 71.7094C236.927 71.5051 236.812 71.228 236.812 70.9391V30.5829C236.815 30.2959 236.931 30.0216 237.135 29.8196C237.339 29.6177 237.615 29.5044 237.902 29.5044ZM244.035 42.7949C243.956 44.4937 244.542 46.1565 245.669 47.4302C246.759 48.614 248.296 49.2059 250.283 49.2059C252.269 49.2059 253.807 48.614 254.896 47.4302C256.023 46.1565 256.609 44.4937 256.53 42.7949C256.605 41.0951 256.019 39.4324 254.896 38.1541C253.807 36.9703 252.269 36.3802 250.283 36.3839C248.296 36.3875 246.759 36.9776 245.669 38.1541C244.544 39.4312 243.959 41.0948 244.035 42.7949Z" fill="#161616"/>
</svg>
