<svg width="23" height="25" viewBox="0 0 23 25" fill="none" xmlns="http://www.w3.org/2000/svg">
<path d="M0 24.1794L1.65153 17.9268C0.319612 15.4911 -0.103551 12.6488 0.459691 9.9215C1.02293 7.19422 2.5348 4.76488 4.71786 3.07927C6.90092 1.39366 9.60874 0.564844 12.3444 0.744918C15.0801 0.924992 17.6602 2.10187 19.6112 4.0596C21.5621 6.01733 22.7532 8.62459 22.9657 11.4029C23.1782 14.1813 22.398 16.9444 20.7682 19.1851C19.1384 21.4259 16.7683 22.9941 14.0929 23.6019C11.4175 24.2097 8.61614 23.8163 6.20299 22.494L0 24.1794ZM6.50209 20.1542L6.88571 20.3856C8.63361 21.4387 10.6751 21.8745 12.6921 21.6251C14.7091 21.3756 16.5883 20.4549 18.0368 19.0065C19.4853 17.5581 20.4218 15.6632 20.7003 13.6173C20.9788 11.5713 20.5837 9.48917 19.5765 7.69531C18.5694 5.90145 17.0068 4.49664 15.1322 3.69981C13.2576 2.90297 11.1764 2.75887 9.21284 3.28996C7.24929 3.82105 5.51372 4.99749 4.27658 6.63595C3.03945 8.27442 2.37025 10.2829 2.37326 12.3483C2.37162 14.0609 2.83755 15.7404 3.71919 17.1997L3.95977 17.6029L3.03648 21.0928L6.50209 20.1542Z" fill="#0BE048"/>
<path fill-rule="evenodd" clip-rule="evenodd" d="M15.8131 13.9543C15.5883 13.77 15.3249 13.6402 15.0432 13.5749C14.7616 13.5096 14.4689 13.5105 14.1876 13.5776C13.765 13.7561 13.4919 14.4302 13.2188 14.7673C13.1612 14.8481 13.0766 14.9048 12.9809 14.9267C12.8851 14.9486 12.7847 14.9342 12.6987 14.8863C11.1514 14.2703 9.85443 13.1405 9.01848 11.6807C8.94718 11.5896 8.91344 11.4739 8.92435 11.358C8.93527 11.2421 8.98999 11.1351 9.077 11.0594C9.38159 10.7528 9.60522 10.3732 9.72721 9.95556C9.7543 9.49488 9.65047 9.036 9.42811 8.63364C9.25621 8.06955 8.92906 7.56727 8.48531 7.18615C8.25644 7.08151 8.00267 7.04642 7.75462 7.08513C7.50657 7.12383 7.27483 7.23467 7.08737 7.40426C6.76192 7.68969 6.5036 8.0457 6.33143 8.44606C6.15926 8.84642 6.07763 9.28094 6.09255 9.71761C6.09356 9.96284 6.12413 10.207 6.18358 10.4447C6.33456 11.0157 6.56675 11.5612 6.8728 12.064C7.09361 12.4492 7.33453 12.822 7.59453 13.181C8.4395 14.3602 9.50166 15.3613 10.722 16.1289C11.3344 16.519 11.9889 16.8361 12.6726 17.0741C13.3829 17.4013 14.167 17.527 14.9419 17.4376C15.3833 17.3697 15.8016 17.1925 16.1599 16.9216C16.5182 16.6508 16.8055 16.2946 16.9965 15.8843C17.1088 15.6365 17.1428 15.3595 17.0941 15.0912C16.977 14.5426 16.2553 14.2187 15.8131 13.9543Z" fill="#0BE048"/>
</svg>
